{
  "accessors": [
    {
      "bufferView": 2,
      "componentType": 5126,
      "count": 56684,
      "max": [
        0.08336986601352692,
        0.236746147274971,
        0.1536402702331543
      ],
      "min": [
        -0.0526377372443676,
        0.005945180542767048,
        -0.10296203196048737
      ],
      "type": "VEC3"
    },
    {
      "bufferView": 2,
      "byteOffset": 680208,
      "componentType": 5126,
      "count": 56684,
      "max": [
        0.9999892711639404,
        0.9999783635139465,
        0.999987781047821
      ],
      "min": [
        -0.9999845027923584,
        -0.9999544620513916,
        -0.9999790191650391
      ],
      "type": "VEC3"
    },
    {
      "bufferView": 3,
      "componentType": 5126,
      "count": 56684,
      "max": [
        0.9998195767402649,
        0.9999850392341614,
        0.9999486207962036,
        1.0
      ],
      "min": [
        -0.9999609589576721,
        -0.999997079372406,
        -0.9998597502708435,
        -1.0
      ],
      "type": "VEC4"
    },
    {
      "bufferView": 1,
      "componentType": 5126,
      "count": 56684,
      "max": [
        0.9987160563468933,
        0.9998851418495178
      ],
      "min": [
        0.00011486560106277466,
        0.00011486560106277466
      ],
      "type": "VEC2"
    },
    {
      "bufferView": 1,
      "byteOffset": 453472,
      "componentType": 5126,
      "count": 56684,
      "max": [
        0.9987160563468933,
        0.9998851418495178
      ],
      "min": [
        0.00011486560106277466,
        0.00011486560106277466
      ],
      "type": "VEC2"
    },
    {
      "bufferView": 0,
      "componentType": 5125,
      "count": 260586,
      "type": "SCALAR"
    }
  ],
  "asset": {
    "extras": {
      "author": "petivisi1971 (https://sketchfab.com/petivisi1971)",
      "license": "CC-BY-4.0 (http://creativecommons.org/licenses/by/4.0/)",
      "source": "https://sketchfab.com/3d-models/dragon-model-sculpture-e3f097f432f849f1b7d48dd522f858f3",
      "title": "Dragon Model Sculpture"
    },
    "generator": "Sketchfab-17.3.0",
    "version": "2.0"
  },
  "bufferViews": [
    {
      "buffer": 0,
      "byteLength": 1042344,
      "name": "floatBufferViews",
      "target": 34963
    },
    {
      "buffer": 0,
      "byteLength": 906944,
      "byteOffset": 1042344,
      "byteStride": 8,
      "name": "floatBufferViews",
      "target": 34962
    },
    {
      "buffer": 0,
      "byteLength": 1360416,
      "byteOffset": 1949288,
      "byteStride": 12,
      "name": "floatBufferViews",
      "target": 34962
    },
    {
      "buffer": 0,
      "byteLength": 906944,
      "byteOffset": 3309704,
      "byteStride": 16,
      "name": "floatBufferViews",
      "target": 34962
    }
  ],
  "buffers": [
    {
      "byteLength": 4216648,
      "uri": "scene.bin"
    }
  ],
  "images": [
    {
      "uri": "textures/lp_Bake1_baked_baseColor.png"
    },
    {
      "uri": "textures/lp_Bake1_baked_normal.png"
    }
  ],
  "materials": [
    {
      "doubleSided": true,
      "name": "lp_Bake1_baked",
      "normalTexture": {
        "index": 1,
        "scale": 0.9
      },
      "pbrMetallicRoughness": {
        "baseColorTexture": {
          "index": 0
        },
        "metallicFactor": 0.0629921,
        "roughnessFactor": 0.409449
      }
    }
  ],
  "meshes": [
    {
      "name": "Object_0",
      "primitives": [
        {
          "attributes": {
            "NORMAL": 1,
            "POSITION": 0,
            "TANGENT": 2,
            "TEXCOORD_0": 3,
            "TEXCOORD_1": 4
          },
          "indices": 5,
          "material": 0,
          "mode": 4
        }
      ]
    }
  ],
  "nodes": [
    {
      "children": [
        1
      ],
      "matrix": [
        1.0,
        0.0,
        0.0,
        0.0,
        0.0,
        2.220446049250313e-16,
        -1.0,
        0.0,
        0.0,
        1.0,
        2.220446049250313e-16,
        0.0,
        0.0,
        0.0,
        0.0,
        1.0
      ],
      "name": "Sketchfab_model"
    },
    {
      "children": [
        2
      ],
      "name": "root"
    },
    {
      "children": [
        3
      ],
      "matrix": [
        1.0,
        0.0,
        0.0,
        0.0,
        0.0,
        2.220446049250313e-16,
        1.0,
        0.0,
        0.0,
        -1.0,
        2.220446049250313e-16,
        0.0,
        0.0,
        0.0,
        0.0,
        1.0
      ],
      "name": "GLTF_SceneRootNode"
    },
    {
      "children": [
        4
      ],
      "name": "Dragon model sculpture_1"
    },
    {
      "children": [
        5
      ],
      "matrix": [
        0.9141163902154261,
        -0.02509133951339346,
        -1.2792947676563404,
        0.0,
        0.008785323375850638,
        1.5723081878686953,
        -0.024560805894529098,
        0.0,
        1.279510550073058,
        0.0071302010296023285,
        0.9141307293259056,
        0.0,
        0.0,
        -0.011349443346261978,
        0.0,
        1.0
      ],
      "name": "lp_Baked_0"
    },
    {
      "mesh": 0,
      "name": "Object_5"
    }
  ],
  "samplers": [
    {
      "magFilter": 9729,
      "minFilter": 9987,
      "wrapS": 10497,
      "wrapT": 10497
    }
  ],
  "scene": 0,
  "scenes": [
    {
      "name": "Sketchfab_Scene",
      "nodes": [
        0
      ]
    }
  ],
  "textures": [
    {
      "sampler": 0,
      "source": 0
    },
    {
      "sampler": 0,
      "source": 1
    }
  ]
}
